HIERARCHY
ROOT joint_Root
{
	OFFSET 0.0 0.0 0.0
	CHANNELS 6 Xposition Yposition Zposition Zrotation Xrotation Yrotation 
	JOINT Hips
	{
		OFFSET -17.1583 93.1646 452.98
		CHANNELS 6 Xposition Yposition Zposition Zrotation Xrotation Yrotation 
		JOINT Spine
		{
			OFFSET 15.7357 0.0 0.0
			CHANNELS 6 Xposition Yposition Zposition Zrotation Xrotation Yrotation 
			JOINT Chest
			{
				OFFSET 8.98455 -0.406207 0.0
				CHANNELS 6 Xposition Yposition Zposition Zrotation Xrotation Yrotation 
				JOINT Neck
				{
					OFFSET 16.3773 0.0 0.0
					CHANNELS 6 Xposition Yposition Zposition Zrotation Xrotation Yrotation 
					JOINT Head
					{
						OFFSET 6.45672 0.0 0.0
						CHANNELS 6 Xposition Yposition Zposition Zrotation Xrotation Yrotation 
						End Site
						{
							OFFSET 0.0 0.0 0.0
						}
					}
				}
				JOINT Shoulder_L
				{
					OFFSET 12.9942 -0.242716 4.98039
					CHANNELS 6 Xposition Yposition Zposition Zrotation Xrotation Yrotation 
					JOINT UpperArm_L
					{
						OFFSET 5.34809 0.0 0.0
						CHANNELS 6 Xposition Yposition Zposition Zrotation Xrotation Yrotation 
						JOINT LowerArm_L
						{
							OFFSET 24.3286 1.87007e-05 0.0
							CHANNELS 6 Xposition Yposition Zposition Zrotation Xrotation Yrotation 
							JOINT Hand_L
							{
								OFFSET 22.2916 0.0 0.0
								CHANNELS 6 Xposition Yposition Zposition Zrotation Xrotation Yrotation 
								End Site
								{
									OFFSET 0.0 0.0 0.0
								}
							}
						}
					}
				}
				JOINT Shoulder_R
				{
					OFFSET 12.9945 -0.242716 -4.98039
					CHANNELS 6 Xposition Yposition Zposition Zrotation Xrotation Yrotation 
					JOINT UpperArm_R
					{
						OFFSET -5.34813 0.0 0.0
						CHANNELS 6 Xposition Yposition Zposition Zrotation Xrotation Yrotation 
						JOINT LowerArm_R
						{
							OFFSET -24.3289 0.000322201 0.0
							CHANNELS 6 Xposition Yposition Zposition Zrotation Xrotation Yrotation 
							JOINT Hand_R
							{
								OFFSET -22.2915 -0.000108084 0.0
								CHANNELS 6 Xposition Yposition Zposition Zrotation Xrotation Yrotation 
								End Site
								{
									OFFSET 0.0 0.0 0.0
								}
							}
						}
					}
				}
			}
		}
		JOINT UpperLeg_L
		{
			OFFSET -2.19248 -6.46944 0.0
			CHANNELS 6 Xposition Yposition Zposition Zrotation Xrotation Yrotation 
			JOINT LowerLeg_L
			{
				OFFSET 39.0811 0.0 -1.23785e-05
				CHANNELS 6 Xposition Yposition Zposition Zrotation Xrotation Yrotation 
				JOINT Foot_L
				{
					OFFSET 40.9854 0.0 -1.26872e-05
					CHANNELS 6 Xposition Yposition Zposition Zrotation Xrotation Yrotation 
					JOINT Toes_L
					{
						OFFSET 11.7543 0.0 0.0
						CHANNELS 6 Xposition Yposition Zposition Zrotation Xrotation Yrotation 
						End Site
						{
							OFFSET 0.0 0.0 0.0
						}
					}
				}
			}
		}
		JOINT UpperLeg_R
		{
			OFFSET -2.19251 6.46944 0.0
			CHANNELS 6 Xposition Yposition Zposition Zrotation Xrotation Yrotation 
			JOINT LowerLeg_R
			{
				OFFSET -39.0811 -0.00228153 -0.0401928
				CHANNELS 6 Xposition Yposition Zposition Zrotation Xrotation Yrotation 
				JOINT Foot_R
				{
					OFFSET -40.9854 0.0 0.0
					CHANNELS 6 Xposition Yposition Zposition Zrotation Xrotation Yrotation 
					JOINT Toes_R
					{
						OFFSET -11.7543 0.0 0.0
						CHANNELS 6 Xposition Yposition Zposition Zrotation Xrotation Yrotation 
						End Site
						{
							OFFSET 0.0 0.0 0.0
						}
					}
				}
			}
		}
	}
}
MOTION
Frames:	5
Frame Time:	0.0333333
0.000000 0.000000 0.000000 0.000000 0.000000 -0.000000 -1.126190 80.553500 -490.849000 80.058200 5.004970 -18.592700 15.735700 0.000005 -0.000001 73.331900 80.734600 -66.357800 8.984550 -0.406207 -0.000000 10.369400 -5.119940 14.413200 16.377300 -0.000001 -0.000001 -12.481700 5.008920 -1.706900 6.456720 -0.000001 -0.000000 -25.498400 10.742700 -4.669150 12.994200 -0.242716 4.980390 -92.274700 8.436190 -74.850900 5.348090 -0.000007 -0.000001 -71.991700 4.905810 -9.333400 24.328600 0.000019 0.000005 26.438900 30.804900 -44.119600 22.291600 -0.000001 0.000005 -2.084870 5.126680 4.491080 12.994500 -0.242716 -4.980390 89.087300 2.821570 -72.067000 -5.348130 -0.000001 -0.000004 -55.005300 -9.275290 1.902490 -24.328900 0.000322 -0.000009 0.568972 19.368200 -1.724390 -22.291500 -0.000108 -0.000004 11.445200 4.923650 8.766240 -2.192480 -6.469440 -0.000000 -167.036000 -4.258600 -5.902760 39.081100 -0.000007 -0.000012 0.066601 -0.056790 49.544200 40.985400 -0.000006 -0.000013 -7.771670 12.643500 -20.196000 11.754300 -0.000000 0.000003 0.002118 0.051484 -14.488400 -2.192510 6.469440 -0.000001 -165.231000 2.041100 130.870000 -39.081100 -0.002282 -0.040193 -0.032080 0.015626 66.084100 -40.985400 0.000008 0.000006 -6.025520 -1.858580 -91.934500 -11.754300 -0.000006 -0.000006 -0.002582 0.203450 -8.318420
0.000000 0.000000 0.000000 0.000000 0.000000 -0.000000 -1.079640 80.126100 -484.848000 79.414200 2.880200 -17.303100 15.735700 0.000005 -0.000001 79.072800 80.486100 -72.510400 8.984550 -0.406207 -0.000000 11.160700 -3.383640 13.453700 16.377300 -0.000001 -0.000001 -11.904400 5.102240 -1.463960 6.456720 -0.000001 -0.000000 -24.337500 9.963870 -4.511680 12.994200 -0.242716 4.980390 -92.648700 9.542440 -74.408800 5.348090 -0.000007 -0.000001 -73.250400 3.475800 -4.491620 24.328600 0.000019 0.000005 12.520300 32.316400 -22.560900 22.291600 -0.000001 0.000005 -10.666800 5.123250 4.580320 12.994500 -0.242716 -4.980390 88.731500 4.071490 -72.678100 -5.348130 -0.000001 -0.000004 -58.669600 1.678660 -4.883320 -24.328900 0.000322 -0.000009 2.358990 13.395000 -10.139000 -22.291500 -0.000108 -0.000004 -1.946710 5.140510 3.976170 -2.192480 -6.469440 -0.000000 -167.822000 -2.820890 -15.986400 39.081100 -0.000007 -0.000012 -0.098269 0.040057 67.825900 40.985400 -0.000006 -0.000013 -8.881720 22.103100 -24.266400 11.754300 -0.000000 0.000003 0.001449 0.029644 -15.374300 -2.192510 6.469440 -0.000001 -165.557000 0.364996 137.251000 -39.081100 -0.002282 -0.040193 -0.027440 0.013447 66.272500 -40.985400 0.000008 0.000006 -6.480560 -0.981428 -94.910700 -11.754300 -0.000006 -0.000006 -0.000868 0.181187 -9.223630
0.000000 0.000000 0.000000 0.000000 0.000000 -0.000000 -0.701854 80.129900 -478.914000 79.478100 0.171039 -16.187900 15.735700 0.000005 -0.000001 87.212800 80.292900 -81.393500 8.984550 -0.406207 -0.000000 11.690400 -0.735803 11.710400 16.377300 -0.000001 -0.000001 -11.144300 4.576060 -1.740940 6.456720 -0.000001 -0.000000 -23.039400 8.375470 -4.988990 12.994200 -0.242716 4.980390 -92.981200 9.843670 -73.058100 5.348090 -0.000007 -0.000001 -71.429100 -2.120000 2.439410 24.328600 0.000019 0.000005 6.703050 38.305700 -10.749300 22.291600 -0.000001 0.000005 -16.332400 5.142190 4.123050 12.994500 -0.242716 -4.980390 89.049400 3.264210 -73.754100 -5.348130 -0.000001 -0.000004 -60.154500 13.718100 -8.056800 -24.328900 0.000322 -0.000009 3.920650 7.491640 -27.828800 -22.291500 -0.000108 -0.000004 -5.055620 5.299750 0.133066 -2.192480 -6.469440 -0.000000 -169.133000 -3.307330 -26.884700 39.081100 -0.000007 -0.000012 -0.053618 0.006448 83.151300 40.985400 -0.000006 -0.000013 -6.654630 18.710500 -33.149400 11.754300 -0.000000 0.000003 0.001713 0.037045 -15.074000 -2.192510 6.469440 -0.000001 -166.865000 -0.193625 143.830000 -39.081100 -0.002282 -0.040193 -0.029403 0.015012 65.251500 -40.985400 0.000008 0.000006 -6.566670 1.338390 -95.658600 -11.754300 -0.000006 -0.000006 0.001727 0.130222 -11.292500
0.000000 0.000000 0.000000 0.000000 0.000000 -0.000000 -0.065480 80.685600 -472.886000 80.933400 -2.108620 -15.590600 15.735700 0.000005 -0.000001 96.040700 80.099900 -91.304600 8.984550 -0.406207 -0.000000 11.855100 2.235200 9.238030 16.377300 -0.000001 -0.000001 -10.080100 3.675310 -1.736340 6.456720 -0.000001 -0.000000 -22.134800 5.943280 -6.531400 12.994200 -0.242716 4.980390 -93.070300 9.132920 -71.327600 5.348090 -0.000007 -0.000001 -65.131800 -11.131300 8.920860 24.328600 0.000019 0.000005 1.796430 45.313000 -2.526000 22.291600 -0.000001 0.000005 -15.187500 5.125140 4.518980 12.994500 -0.242716 -4.980390 89.646400 1.259430 -74.325800 -5.348130 -0.000001 -0.000004 -59.580800 19.585500 -10.911600 -24.328900 0.000322 -0.000009 4.264830 3.904500 -47.638400 -22.291500 -0.000108 -0.000004 1.909990 5.416500 -3.394980 -2.192480 -6.469440 -0.000000 -171.707000 -3.625860 -38.208700 39.081100 -0.000007 -0.000012 0.005623 0.000299 92.951000 40.985400 -0.000006 -0.000013 -4.149430 9.846880 -40.097300 11.754300 -0.000000 0.000003 0.002053 0.048796 -14.597400 -2.192510 6.469440 -0.000001 -169.782000 0.679045 150.217000 -39.081100 -0.002282 -0.040193 -0.024096 0.014131 62.614700 -40.985400 0.000008 0.000006 -6.341490 3.720470 -94.682500 -11.754300 -0.000006 -0.000006 0.002253 0.058042 -14.218900
0.000000 0.000000 0.000000 0.000000 0.000000 -0.000000 0.724889 82.040400 -466.398000 83.655500 -3.802290 -15.752300 15.735700 0.000005 -0.000001 103.029000 80.140200 -99.790900 8.984550 -0.406207 -0.000000 11.351000 4.511350 6.026360 16.377300 -0.000001 -0.000001 -8.754980 2.702440 -1.723860 6.456720 -0.000001 -0.000000 -21.136600 3.359800 -6.802040 12.994200 -0.242716 4.980390 -93.062000 8.308130 -69.684200 5.348090 -0.000007 -0.000001 -55.312100 -14.736800 15.705300 24.328600 0.000019 0.000005 0.001083 41.119800 -0.000000 22.291600 -0.000001 0.000005 -10.288400 5.007290 7.119540 12.994500 -0.242716 -4.980390 90.080200 -0.297120 -74.880300 -5.348130 -0.000001 -0.000004 -57.609300 19.605500 -14.541100 -24.328900 0.000322 -0.000009 4.351120 2.153890 -63.735800 -22.291500 -0.000108 -0.000004 7.809590 5.450040 -4.643180 -2.192480 -6.469440 -0.000000 -175.197000 -2.747880 -48.321600 39.081100 -0.000007 -0.000012 -0.024703 -0.002612 96.057900 40.985400 -0.000006 -0.000013 -1.337360 4.530030 -50.079100 11.754300 -0.000000 0.000003 0.002148 0.052826 -14.434000 -2.192510 6.469440 -0.000001 -174.163000 1.918070 157.094000 -39.081100 -0.002282 -0.040193 -0.003006 0.004068 56.827400 -40.985400 0.000008 0.000006 -6.161190 5.557430 -91.699000 -11.754300 -0.000006 -0.000006 -0.002038 -0.029189 -17.760000
